# xmcd
#
# Track frame offsets: 
#        150
#        17057
#        33219
#        48624
#        65320
#        81983
#        97917
#        115092
#        133099
#        149195
#        163113
#        183530
#        200660
#
# Disc length: 2896 seconds
#
# Revision: 0
# Processed by: cddbd v1.5.2PL0 Copyright (c) Steve Scherf et al.
# Submitted via: ExactAudioCopyFreeDBPlugin 1.0
#
DISCID=bc0b4e0d
DTITLE=Nix mehr egal - Ahzumjot
DYEAR=2014
DGENRE=Hip-Hop
TTITLE0=Wann bin ich dran?
TTITLE1=Für Immer
TTITLE2=Es ist gut wie es ist
TTITLE3=Schlaraffenland
TTITLE4=Besser jetzt als spät
TTITLE5=Geschichte
TTITLE6=Vier Minuten
TTITLE7=8701
TTITLE8=Immer Held
TTITLE9=Der coolste Motherfxcker
TTITLE10=Raumschiff
TTITLE11=Zu Gast
TTITLE12=Tag Eins
EXTD=
EXTT0=
EXTT1=
EXTT2=
EXTT3=
EXTT4=
EXTT5=
EXTT6=
EXTT7=
EXTT8=
EXTT9=
EXTT10=
EXTT11=
EXTT12=
PLAYORDER=
